<svg viewBox="0 0 67 67" xmlns="http://www.w3.org/2000/svg" xml:space="preserve" style="fill-rule:evenodd;clip-rule:evenodd;stroke-linejoin:round;stroke-miterlimit:2"><path d="M0 29.167V12.573a4.24 4.24 0 0 1 4.239-4.24H22.77c1.393 0 2.694.697 3.467 1.856l2.93 4.394 12.5-.051v14.635H0z" style="fill:url(#a)"/><path d="M0 56.25c0 1.658.658 3.247 1.831 4.419A6.245 6.245 0 0 0 6.25 62.5h54.167a6.249 6.249 0 0 0 6.25-6.25V35.417a6.251 6.251 0 0 0-6.25-6.25H6.25A6.248 6.248 0 0 0 0 35.417V56.25z" style="fill:url(#b)"/><path d="M0 52.083a6.247 6.247 0 0 0 6.25 6.25h54.167a6.25 6.25 0 0 0 6.25-6.25V18.75a6.249 6.249 0 0 0-6.25-6.25H33.333L25 16.667H6.25A6.248 6.248 0 0 0 0 22.917v29.166z" style="fill:url(#c)"/><defs><linearGradient id="a" x1="0" y1="0" x2="1" y2="0" gradientUnits="userSpaceOnUse" gradientTransform="matrix(0 -12.5 6.25 0 12.5 20.833)"><stop offset="0" style="stop-color:#c4891f;stop-opacity:1"/><stop offset=".55" style="stop-color:#ca8e23;stop-opacity:1"/><stop offset="1" style="stop-color:#de9f30;stop-opacity:1"/></linearGradient><linearGradient id="b" x1="0" y1="0" x2="1" y2="0" gradientUnits="userSpaceOnUse" gradientTransform="matrix(66.6667 0 0 33.3333 0 45.833)"><stop offset="0" style="stop-color:#de9f30;stop-opacity:1"/><stop offset="1" style="stop-color:#c4891f;stop-opacity:1"/></linearGradient><linearGradient id="c" x1="0" y1="0" x2="1" y2="0" gradientUnits="userSpaceOnUse" gradientTransform="scale(45) rotate(33.7 -.625 .69)"><stop offset="0" style="stop-color:#fae2a0;stop-opacity:1"/><stop offset=".5" style="stop-color:#fdd466;stop-opacity:1"/><stop offset="1" style="stop-color:#fcc121;stop-opacity:1"/></linearGradient></defs></svg>