<?xml version="1.0" encoding="UTF-8" standalone="no"?><!DOCTYPE svg PUBLIC "-//W3C//DTD SVG 1.1//EN" "http://www.w3.org/Graphics/SVG/1.1/DTD/svg11.dtd"><svg width="100%" height="100%" viewBox="0 0 67 67" version="1.1" xmlns="http://www.w3.org/2000/svg" xmlns:xlink="http://www.w3.org/1999/xlink" xml:space="preserve" xmlns:serif="http://www.serif.com/" style="fill-rule:evenodd;clip-rule:evenodd;stroke-linejoin:round;stroke-miterlimit:2;"><g id="FileIcon"><g id="Layer3"></g></g><g id="DirIcon"></g><g id="DirIcon2"><path d="M-0,29.167l-0,-16.594c-0,-1.125 0.447,-2.203 1.242,-2.998c0.795,-0.795 1.873,-1.242 2.997,-1.242c5.354,0 14.368,0 18.531,0c1.393,0 2.694,0.697 3.467,1.856c1.228,1.842 2.93,4.394 2.93,4.394l12.5,-0.051l-0,14.635l-41.667,-0Z" style="fill:url(#_Radial1);"/><path d="M-0,56.25c-0,1.658 0.658,3.247 1.831,4.419c1.172,1.173 2.761,1.831 4.419,1.831c12.713,0 41.454,0 54.167,0c1.657,0 3.247,-0.658 4.419,-1.831c1.172,-1.172 1.831,-2.761 1.831,-4.419c-0,-5.957 -0,-14.877 -0,-20.833c-0,-1.658 -0.659,-3.248 -1.831,-4.42c-1.172,-1.172 -2.762,-1.83 -4.419,-1.83c-12.713,-0 -41.454,-0 -54.167,-0c-1.658,-0 -3.247,0.658 -4.419,1.83c-1.173,1.172 -1.831,2.762 -1.831,4.42c-0,5.956 -0,14.876 -0,20.833Z" style="fill:url(#_Linear2);"/><path d="M0,52.083c-0,1.658 0.658,3.248 1.831,4.42c1.172,1.172 2.761,1.83 4.419,1.83c12.713,0 41.454,0 54.167,0c1.657,0 3.247,-0.658 4.419,-1.83c1.172,-1.172 1.831,-2.762 1.831,-4.42c-0,-8.755 -0,-24.578 -0,-33.333c-0,-1.658 -0.659,-3.247 -1.831,-4.419c-1.172,-1.173 -2.762,-1.831 -4.419,-1.831c-9.652,0 -27.084,0 -27.084,0l-8.333,4.167l-18.75,-0c-1.658,-0 -3.247,0.658 -4.419,1.83c-1.173,1.172 -1.831,2.762 -1.831,4.42c0,7.867 0,21.299 0,29.166Z" style="fill:url(#_Linear3);"/></g><defs><radialGradient id="_Radial1" cx="0" cy="0" r="1" gradientUnits="userSpaceOnUse" gradientTransform="matrix(1.16554e-15,19.0347,-19.0347,1.16554e-15,16.6667,12.5)"><stop offset="0" style="stop-color:#f7b504;stop-opacity:1"/><stop offset="0.5" style="stop-color:#e9ab03;stop-opacity:1"/><stop offset="1" style="stop-color:#c08c00;stop-opacity:1"/></radialGradient><linearGradient id="_Linear2" x1="0" y1="0" x2="1" y2="0" gradientUnits="userSpaceOnUse" gradientTransform="matrix(66.6667,0,0,66.6667,7.67386e-13,50)"><stop offset="0" style="stop-color:#f1b104;stop-opacity:1"/><stop offset="1" style="stop-color:#e09f00;stop-opacity:1"/></linearGradient><linearGradient id="_Linear3" x1="0" y1="0" x2="1" y2="0" gradientUnits="userSpaceOnUse" gradientTransform="matrix(16.6667,20.8333,-20.8333,16.6667,25,33.3333)"><stop offset="0" style="stop-color:#fdd466;stop-opacity:1"/><stop offset="1" style="stop-color:#fcc121;stop-opacity:1"/></linearGradient></defs></svg>