<?xml version="1.0" encoding="UTF-8" standalone="no"?><!DOCTYPE svg PUBLIC "-//W3C//DTD SVG 1.1//EN" "http://www.w3.org/Graphics/SVG/1.1/DTD/svg11.dtd"><svg width="100%" height="100%" viewBox="0 0 67 67" version="1.1" xmlns="http://www.w3.org/2000/svg" xmlns:xlink="http://www.w3.org/1999/xlink" xml:space="preserve" xmlns:serif="http://www.serif.com/" style="fill-rule:evenodd;clip-rule:evenodd;stroke-linejoin:round;stroke-miterlimit:2;"><g id="FileIcon"><path id="Document" d="M66.667,20.833l-20.834,-20.833l-25,0c-2.301,-0 -4.166,1.865 -4.166,4.167c-0,11.969 -0,46.363 -0,58.333c-0,2.301 1.865,4.167 4.166,4.167c9.417,-0 32.25,-0 41.667,-0c2.301,-0 4.167,-1.866 4.167,-4.167c-0,-13.117 -0,-41.667 -0,-41.667Z" style="fill:#e8e8de;"/><clipPath id="_clip1"><path d="M66.667,20.833l-20.834,-20.833l-25,0c-2.301,-0 -4.166,1.865 -4.166,4.167c-0,11.969 -0,46.363 -0,58.333c-0,2.301 1.865,4.167 4.166,4.167c9.417,-0 32.25,-0 41.667,-0c2.301,-0 4.167,-1.866 4.167,-4.167c-0,-13.117 -0,-41.667 -0,-41.667Z"/></clipPath><g clip-path="url(#_clip1)"><g id="Text"><rect x="25" y="20.833" width="16.667" height="4.167" style="fill:#808080;"/><rect x="25" y="29.167" width="33.333" height="4.167" style="fill:#808080;"/><rect x="45.833" y="37.5" width="12.5" height="4.167" style="fill:#808080;"/><rect x="45.833" y="45.833" width="12.5" height="4.167" style="fill:#808080;"/><rect x="45.833" y="54.167" width="12.5" height="4.167" style="fill:#808080;"/><rect x="25" y="12.5" width="16.667" height="4.167" style="fill:#808080;"/></g><path d="M45.833,0l20.834,20.833l-16.667,0c-1.105,0 -2.165,-0.439 -2.946,-1.22c-0.782,-0.781 -1.221,-1.841 -1.221,-2.946l0,-16.667Z" style="fill:#d8d6c9;"/></g><path d="M66.667,20.833l-20.834,-20.833l-25,0c-2.301,-0 -4.166,1.865 -4.166,4.167c-0,11.969 -0,46.363 -0,58.333c-0,2.301 1.865,4.167 4.166,4.167c9.417,-0 32.25,-0 41.667,-0c2.301,-0 4.167,-1.866 4.167,-4.167c-0,-13.117 -0,-41.667 -0,-41.667Zm-1.997,0.827l-0,40.84c-0,1.199 -0.972,2.17 -2.17,2.17l-41.667,-0c-1.198,-0 -2.17,-0.971 -2.17,-2.17c0,-0 0,-58.333 0,-58.333c0,-1.199 0.972,-2.17 2.17,-2.17l24.173,-0l19.664,19.663Z" style="fill:#d8d6c9;"/><g id="Layer3"><path d="M41.667,41.995c-0,-1.192 -0.474,-2.335 -1.317,-3.178c-0.843,-0.843 -1.987,-1.317 -3.179,-1.317c-8.011,0 -24.665,0 -32.675,0c-1.193,-0 -2.336,0.474 -3.179,1.317c-0.843,0.843 -1.317,1.986 -1.317,3.178c-0,6.125 -0,16.338 -0,16.338l37.171,0c1.192,0 2.336,-0.473 3.179,-1.316c0.843,-0.843 1.317,-1.987 1.317,-3.179c-0,-3.502 -0,-8.341 -0,-11.843Z" style="fill:#cb4b4c;"/><path d="M16.667,58.333l-16.667,0l0,0c0,2.302 1.865,4.167 4.167,4.167c4.936,0 12.5,0 12.5,0l-0,-4.167Z" style="fill:#a02b2b;"/><text x="3.032px" y="54.167px" style="font-family:'Inter-Bold', 'Inter', sans-serif;font-weight:700;font-size:17.188px;fill:#fff;">P<tspan x="14.661px 27.719px " y="54.167px 54.167px ">DF</tspan></text></g></g></svg>