<svg viewBox="0 0 67 67" xmlns="http://www.w3.org/2000/svg" xml:space="preserve" style="fill-rule:evenodd;clip-rule:evenodd;stroke-linejoin:round;stroke-miterlimit:2"><path d="m36.665 39.943-6.085 6.085a5.91 5.91 0 0 1-1.729 3.976l-7.975 7.975a4.246 4.246 0 0 1-6.006 0l-6.183-6.183a4.246 4.246 0 0 1 0-6.005l7.975-7.975a5.92 5.92 0 0 1 3.977-1.73l6.084-6.084a13.354 13.354 0 0 0-15.324 2.55l-7.975 7.976a11.69 11.69 0 0 0 0 16.532l6.183 6.183a11.691 11.691 0 0 0 16.532 0l7.975-7.975a13.36 13.36 0 0 0 2.551-15.325zm6.245-21.45L21.272 40.131a2.887 2.887 0 0 0-.847 2.025l-.001.022.001.07.002.06c.012.257.057.514.137.761l.023.067c.139.397.367.771.685 1.089l1.17 1.17a2.895 2.895 0 0 0 4.093 0l21.638-21.638a2.896 2.896 0 0 0 .519-3.39l-.036-.066-.017-.029a2.866 2.866 0 0 0-.466-.609l-1.169-1.17a2.896 2.896 0 0 0-4.094 0zm-12.908 8.23 6.084-6.084a5.92 5.92 0 0 1 1.73-3.977l7.975-7.975a4.247 4.247 0 0 1 6.005 0l6.183 6.183a4.246 4.246 0 0 1 0 6.006l-7.975 7.975a5.91 5.91 0 0 1-3.976 1.729l-6.085 6.085a13.36 13.36 0 0 0 15.325-2.551l7.975-7.975a11.691 11.691 0 0 0 0-16.532L57.06 3.424a11.693 11.693 0 0 0-16.532 0l-7.976 7.975a13.364 13.364 0 0 0-2.55 15.324z" style="fill:url(#a)"/><defs><linearGradient id="a" x1="0" y1="0" x2="1" y2="0" gradientUnits="userSpaceOnUse" gradientTransform="translate(0 33.333) scale(66.6667)"><stop offset="0" style="stop-color:#ffc216;stop-opacity:.72"/><stop offset="1" style="stop-color:#ff7903;stop-opacity:.72"/></linearGradient></defs></svg>