<svg viewBox="0 0 67 67" xmlns="http://www.w3.org/2000/svg" xml:space="preserve" style="fill-rule:evenodd;clip-rule:evenodd;stroke-linejoin:round;stroke-miterlimit:2"><clipPath id="a"><path d="M33.333.147C14.933.147 0 15.08 0 33.48s14.933 33.333 33.333 33.333H50v-6.666H33.333c-14.466 0-26.666-12.2-26.666-26.667 0-14.467 12.2-26.667 26.666-26.667C47.8 6.813 60 19.013 60 33.48v4.767c0 2.633-2.367 5.233-5 5.233s-5-2.6-5-5.233V33.48c0-9.2-7.467-16.667-16.667-16.667-9.2 0-16.666 7.467-16.666 16.667 0 9.2 7.466 16.667 16.666 16.667 4.6 0 8.8-1.867 11.8-4.9 2.167 2.966 5.9 4.9 9.867 4.9 6.567 0 11.667-5.334 11.667-11.9V33.48c0-18.4-14.934-33.333-33.334-33.333zm0 43.333c-5.533 0-10-4.467-10-10s4.467-10 10-10c5.534 0 10 4.467 10 10s-4.466 10-10 10z"/></clipPath><g clip-path="url(#a)"><path d="M0 14.836c0-1.364.668-2.642 1.788-3.421L30.954-8.871a4.165 4.165 0 0 1 4.758 0l29.167 20.286a4.168 4.168 0 0 1 1.788 3.421v51.919H0V14.836z" style="fill:#73c9cd"/><path d="m0 66.789 33.333-21.714 33.334 21.714H0" style="fill:#0f8cde"/><path d="M66.667 23.361 33.333 45.075l33.334 21.714V23.361z" style="fill:#38c8f2"/><path d="m0 23.361 33.333 21.714L0 66.789V23.361z" style="fill:#32bbef"/></g></svg>