<svg viewBox="0 0 67 67" xmlns="http://www.w3.org/2000/svg" xml:space="preserve" style="fill-rule:evenodd;clip-rule:evenodd;stroke-linejoin:round;stroke-miterlimit:2"><path d="M66.667 6.25A6.249 6.249 0 0 0 60.417 0H6.25a6.245 6.245 0 0 0-4.419 1.831A6.245 6.245 0 0 0 0 6.25v54.167a6.249 6.249 0 0 0 6.25 6.25h54.167a6.25 6.25 0 0 0 6.25-6.25V6.25z" style="fill:url(#a)"/><path d="M54.653 37.707c-.081.202-.405 2.915-.972 8.138-.567 5.224-.871 7.917-.911 8.079v.243H32.847c-13.484 0-20.286-.081-20.408-.243l-.06-.061c-.243-.162-.365-.425-.365-.79 0-.243.365-.708 1.093-1.397.729-.688 3.382-3.057 7.957-7.106l8.868-7.896c.04 0-.749-.972-2.369-2.915a508.164 508.164 0 0 0-6.438-7.532c-5.953-7.005-8.949-10.548-8.989-10.629-.081-.122-.122-.527-.122-1.215 0-.972.223-1.559.668-1.762.122-.081 6.843-.121 20.165-.121H52.77v.243c.121.243.445 2.753.971 7.532.527 4.778.831 7.288.912 7.531v.243H52.77c-1.256 0-1.883-.02-1.883-.061 0-.121-.02-.384-.061-.789-.04-.405-.182-1.073-.425-2.005a16.528 16.528 0 0 0-.911-2.611c-.365-.81-.911-1.681-1.64-2.612-.729-.931-1.559-1.64-2.49-2.126-1.418-.688-3.159-1.114-5.224-1.276-2.065-.161-5.223-.263-9.475-.303h-5.467l6.985 8.2c4.454 5.304 6.823 8.098 7.107 8.381.162.365.141.709-.061 1.033-.364.364-3.219 2.915-8.564 7.653a279.324 279.324 0 0 0-4.13 3.705c-1.418 1.296-2.511 2.268-3.28 2.916l-1.094.971.729.122h10.63c1.457 0 2.51-.02 3.158-.061.648-.04 1.518-.061 2.612-.061 1.093 0 1.923-.101 2.49-.303a11.112 11.112 0 0 1 2.004-.486c.77-.122 1.418-.385 1.944-.79l1.579-1.215c1.782-1.781 2.936-4.434 3.462-7.956l.122-.851c0-.04.627-.06 1.883-.06h1.883v.243z" style="fill:#fff;fill-rule:nonzero"/><defs><radialGradient id="a" cx="0" cy="0" r="1" gradientUnits="userSpaceOnUse" gradientTransform="scale(43.6433) rotate(39.806 -.588 .969)"><stop offset="0" style="stop-color:#1b4b46;stop-opacity:1"/><stop offset="1" style="stop-color:#3c7671;stop-opacity:1"/></radialGradient></defs></svg>