<svg viewBox="0 0 67 67" xmlns="http://www.w3.org/2000/svg" xml:space="preserve" style="fill-rule:evenodd;clip-rule:evenodd;stroke-linejoin:round;stroke-miterlimit:2"><path d="M66.667 20.833 45.833 0h-25a4.166 4.166 0 0 0-4.166 4.167V62.5a4.167 4.167 0 0 0 4.166 4.167H62.5a4.167 4.167 0 0 0 4.167-4.167V20.833z" style="fill:#33000e"/><clipPath id="a"><path d="M66.667 20.833 45.833 0h-25a4.166 4.166 0 0 0-4.166 4.167V62.5a4.167 4.167 0 0 0 4.166 4.167H62.5a4.167 4.167 0 0 0 4.167-4.167V20.833z"/></clipPath><g clip-path="url(#a)"><path d="M41.667 22.917a2.08 2.08 0 0 0-.611-1.473 2.08 2.08 0 0 0-1.473-.611h-12.5a2.084 2.084 0 0 0 0 4.167h12.5a2.084 2.084 0 0 0 2.084-2.083zM58.333 31.25a2.082 2.082 0 0 0-2.083-2.083H27.083a2.083 2.083 0 1 0 0 4.166H56.25a2.082 2.082 0 0 0 2.083-2.083zM58.333 39.583A2.083 2.083 0 0 0 56.25 37.5h-8.333a2.084 2.084 0 1 0 0 4.167h8.333a2.082 2.082 0 0 0 2.083-2.084zM58.333 47.917a2.082 2.082 0 0 0-2.083-2.084h-8.333a2.08 2.08 0 0 0-1.473.611 2.08 2.08 0 0 0 0 2.946c.39.391.92.61 1.473.61h8.333a2.081 2.081 0 0 0 2.083-2.083zM58.333 56.25a2.081 2.081 0 0 0-2.083-2.083h-8.333a2.082 2.082 0 1 0 0 4.166h8.333a2.081 2.081 0 0 0 2.083-2.083zM41.667 14.583a2.084 2.084 0 0 0-2.084-2.083h-12.5a2.083 2.083 0 1 0 0 4.167h12.5a2.08 2.08 0 0 0 1.473-.611c.391-.39.611-.92.611-1.473z" style="fill:#fff"/><path d="m45.833 0 20.834 20.833H50a4.167 4.167 0 0 1-4.167-4.166V0z" style="fill:#a02b2b"/></g><path d="M41.667 41.995a4.495 4.495 0 0 0-4.496-4.495H4.496A4.495 4.495 0 0 0 0 41.995v16.338h37.171a4.496 4.496 0 0 0 4.496-4.495V41.995z" style="fill:url(#b)"/><path d="M16.667 58.333H0A4.166 4.166 0 0 0 4.167 62.5h12.5v-4.167z" style="fill:url(#c)"/><text x="3.032" y="54.167" style="font-family:'Inter-Bold','Inter',sans-serif;font-weight:700;font-size:17.188px;fill:#fff">P<tspan x="14.661px 27.719px" y="54.167px 54.167px">DF</tspan></text><defs><linearGradient id="b" x1="0" y1="0" x2="1" y2="0" gradientUnits="userSpaceOnUse" gradientTransform="matrix(41.6667 -20.8333 10.4167 20.8333 0 58.333)"><stop offset="0" style="stop-color:#cb4b4c;stop-opacity:1"/><stop offset="1" style="stop-color:#a02b2b;stop-opacity:1"/></linearGradient><linearGradient id="c" x1="0" y1="0" x2="1" y2="0" gradientUnits="userSpaceOnUse" gradientTransform="rotate(-14.036 253.847 31.25) scale(17.17964)"><stop offset="0" style="stop-color:#a02b2b;stop-opacity:1"/><stop offset="1" style="stop-color:#741f1f;stop-opacity:1"/></linearGradient></defs></svg>