<svg viewBox="0 0 67 67" xmlns="http://www.w3.org/2000/svg" xml:space="preserve" style="fill-rule:evenodd;clip-rule:evenodd;stroke-linecap:round;stroke-linejoin:round;stroke-miterlimit:1.5"><path d="M22.209 8.889V4.444A4.445 4.445 0 0 1 26.653 0h13.333a4.442 4.442 0 0 1 4.445 4.444v4.445h9.836a4.478 4.478 0 0 1 4.345 3.392l.684 2.736a2.222 2.222 0 0 1-2.156 2.761H9.526a2.221 2.221 0 0 1-2.15-2.781l.722-2.781A4.445 4.445 0 0 1 12.4 8.889h9.809zm16.889 0V6.667a2.223 2.223 0 0 0-2.223-2.223h-7.111a2.222 2.222 0 0 0-2.222 2.223v2.222h11.556z" style="fill:url(#a)"/><path d="m11.098 22.222 3.889 38.897a6.16 6.16 0 0 0 6.13 5.548h24.487a6.071 6.071 0 0 0 6.04-5.467l3.898-38.978H11.098z" style="fill:url(#b)"/><path d="m44.706 57.778 1.455-26.667M20.464 31.111l1.455 26.667M33.313 31.111v26.667" style="fill:none;stroke:#763a37;stroke-width:5.42px"/><defs><linearGradient id="a" x1="0" y1="0" x2="1" y2="0" gradientUnits="userSpaceOnUse" gradientTransform="matrix(20.8333 0 0 8.33333 22.904 8.333)"><stop offset="0" style="stop-color:#b05a56;stop-opacity:1"/><stop offset="1" style="stop-color:#c97181;stop-opacity:1"/></linearGradient><linearGradient id="b" x1="0" y1="0" x2="1" y2="0" gradientUnits="userSpaceOnUse" gradientTransform="translate(11.098 44.444) scale(44.4444)"><stop offset="0" style="stop-color:#b05a56;stop-opacity:1"/><stop offset="1" style="stop-color:#c97181;stop-opacity:1"/></linearGradient></defs></svg>